<?xml version="1.0" standalone="no"?>
<!DOCTYPE svg PUBLIC "-//W3C//DTD SVG 20010904//EN"
"http://www.w3.org/TR/2001/REC-SVG-20010904/DTD/svg10.dtd">
<svg version="1.0" xmlns="http://www.w3.org/2000/svg"
width="576.000000pt" height="576.000000pt" viewBox="0 0 576.000000 576.000000"
preserveAspectRatio="xMidYMid meet">
<metadata>
Created by potrace 1.14, written by Peter Selinger 2001-2017
</metadata>
<g transform="translate(0.000000,576.000000) scale(0.100000,-0.100000)"
fill="#000000" stroke="none">
<path d="M2620 5745 c-106 -13 -191 -28 -265 -47 l-39 -10 104 -35 c141 -46
361 -154 490 -240 523 -349 855 -903 919 -1532 63 -607 -158 -1283 -695 -2133
l-93 -148 1067 0 1068 0 47 121 c90 230 156 489 194 764 24 180 24 606 0 790
-67 497 -227 937 -484 1324 -488 734 -1257 1166 -2068 1160 -77 -1 -187 -7
-245 -14z"/>
<path d="M1595 5110 c-550 -86 -958 -560 -1161 -1349 -128 -498 -147 -1037
-53 -1506 119 -594 395 -1121 799 -1525 210 -211 427 -366 685 -491 881 -428
1865 -276 2629 405 79 71 286 294 286 308 0 4 -678 8 -1506 8 -952 0 -1504 4
-1502 10 2 5 95 125 208 267 516 649 753 999 944 1394 122 252 191 449 236
668 111 554 -20 1032 -384 1397 -209 209 -460 343 -747 399 -99 19 -349 28
-434 15z"/>
</g>
</svg>
